<svg width="159" height="59" viewBox="0 0 159 59" fill="none" xmlns="http://www.w3.org/2000/svg">
<path d="M34.832 39.304C33.1253 40.584 31.3333 41.5227 29.456 42.12C27.6213 42.6747 25.7867 42.824 23.952 42.568C22.1173 42.312 20.5387 41.5227 19.216 40.2C18.0213 43.9973 17.2107 47.752 16.784 51.464C16.6133 52.1467 16.3147 52.7653 15.888 53.32C15.12 55.5813 13.4347 57.096 10.832 57.864C8.272 58.5893 5.88267 58.4613 3.664 57.48C2.64 57.0107 1.78667 56.328 1.104 55.432C0.421333 54.536 0.0799999 53.448 0.0799999 52.168C3.024 41.9707 5.86133 33.608 8.592 27.08C9.18933 25.7147 9.65867 24.6053 10 23.752C10.384 22.8987 10.7253 22.1733 11.024 21.576C11.3227 20.9787 11.5787 20.4667 11.792 20.04C12.048 19.5707 12.3467 19.0587 12.688 18.504C13.456 17.224 14.3307 15.7307 15.312 14.024C16.336 12.2747 17.1893 10.9733 17.872 10.12C18.5973 9.26666 19.344 8.54133 20.112 7.944C20.9227 7.304 21.7973 6.70666 22.736 6.152C23.7173 5.59733 24.9333 4.872 26.384 3.976C27.8347 3.08 29.3707 2.54666 30.992 2.376C32.656 2.16266 34.2347 2.29066 35.728 2.76C38.8853 3.74133 41.2107 5.93866 42.704 9.352C43.984 12.5093 44.1973 16.7547 43.344 22.088C42.0213 30.2373 39.184 35.976 34.832 39.304ZM21.456 33.608C24.9547 32.84 27.3867 30.5573 28.752 26.76C29.904 23.56 30.1387 19.9333 29.456 15.88C28.4747 17.544 27.5787 19.272 26.768 21.064C26 22.856 25.296 24.456 24.656 25.864C23.248 29.0213 22.1813 31.6027 21.456 33.608ZM63.1485 43.528C62.3378 43.912 61.5485 44.2107 60.7805 44.424C60.0125 44.6373 59.1165 44.8507 58.0925 45.064C55.4045 45.6187 53.4632 45.9387 52.2685 46.024C52.3965 46.4507 53.0365 46.9627 54.1885 47.56C54.9565 47.688 55.7885 47.5813 56.6845 47.24C57.6232 46.856 58.5832 46.5147 59.5645 46.216C60.5885 45.8747 61.5698 45.6827 62.5085 45.64C63.4898 45.5973 64.4072 45.96 65.2605 46.728C65.6018 47.496 65.8792 47.944 66.0925 48.072C66.3058 48.2 66.4978 48.264 66.6685 48.264C66.8392 48.264 67.0312 48.328 67.2445 48.456C67.4578 48.584 67.7565 49.0747 68.1405 49.928C68.5672 50.7813 68.4605 51.592 67.8205 52.36C67.2232 53.128 66.2845 53.7893 65.0045 54.344C63.7245 54.8987 62.2312 55.3467 60.5245 55.688C58.8178 56.0293 57.1112 56.264 55.4045 56.392C51.5645 56.6907 48.6418 56.392 46.6365 55.496C43.7352 54.5147 41.8578 52.5733 41.0045 49.672C39.8952 45.832 40.5138 41.352 42.8605 36.232C43.9272 33.8427 45.6125 31.2827 47.9165 28.552C49.9218 26.1627 52.1618 24.4347 54.6365 23.368C57.4952 22.1307 60.4818 21.5547 63.5965 21.64C66.9245 21.7253 69.2285 23.176 70.5085 25.992C71.1485 27.4853 71.2765 29.576 70.8925 32.264C70.2098 35.7627 69.3138 38.2373 68.2045 39.688C67.0952 41.096 65.4098 42.376 63.1485 43.528ZM59.4365 33.416C57.1752 32.9467 55.4045 34.2267 54.1245 37.256C53.7405 38.0667 53.4418 38.92 53.2285 39.816C54.6792 39.9867 56.2152 39.176 57.8365 37.384C58.4338 36.6587 58.8818 35.9333 59.1805 35.208C59.4792 34.44 59.5645 33.8427 59.4365 33.416ZM89.0315 5.128L89.0955 4.872L89.6715 4.296C90.1408 3.18666 90.6528 2.52533 91.2075 2.312C91.5062 2.22666 91.8902 2.12 92.3595 1.992C92.8288 1.864 93.4475 1.544 94.2155 1.032C94.5142 0.434664 95.1328 0.178664 96.0715 0.263996C97.0102 0.306665 97.9275 0.605331 98.8235 1.16C99.7622 1.672 100.509 2.39733 101.064 3.336C101.661 4.27467 101.81 5.256 101.512 6.28C101.213 7.26133 100.957 8.008 100.744 8.52C100.573 8.98933 100.381 9.43733 100.168 9.864C99.9968 10.2907 99.7622 10.7813 99.4635 11.336C99.2075 11.848 98.8662 12.552 98.4395 13.448L96.3275 17.864C96.1142 18.4187 95.9222 18.7387 95.7515 18.824C95.6235 18.9093 95.4955 19.0587 95.3675 19.272C95.7515 19.1867 96.0715 19.1227 96.3275 19.08C96.5835 19.0373 96.8395 18.9947 97.0955 18.952C97.6928 18.8667 98.3755 18.7813 99.1435 18.696C99.6128 18.7813 100.018 18.824 100.36 18.824H101.256C101.768 18.824 102.386 18.9733 103.112 19.272C103.837 19.528 104.306 19.9973 104.52 20.68C104.733 21.3627 104.754 22.0667 104.583 22.792C104.413 23.4747 104.072 24.1147 103.56 24.712C103.048 25.3093 102.386 25.6293 101.576 25.672C97.8635 26.696 95.2182 27.2507 93.6395 27.336L93.2555 27.784V27.848C92.8288 28.872 92.3595 30.1733 91.8475 31.752C91.3782 33.288 90.8448 34.9733 90.2475 36.808C89.6928 38.6 89.1168 40.4773 88.5195 42.44C87.9222 44.36 87.3035 46.216 86.6635 48.008C84.6155 54.024 83.1222 57.288 82.1835 57.8C81.8422 57.9707 81.4795 58.0773 81.0955 58.12C80.7542 58.2053 80.5622 58.2693 80.5195 58.312C79.0262 58.2267 77.7888 57.928 76.8075 57.416C75.8262 56.904 75.1648 56.4133 74.8235 55.944C74.4822 55.4747 74.3968 54.9413 74.5675 54.344C75.3782 46.92 76.9995 38.792 79.4315 29.96C78.5782 29.96 77.9808 30.0453 77.6395 30.216C76.9995 30.5573 76.2315 30.7493 75.3355 30.792H75.2715C74.5888 30.7493 73.9702 30.4293 73.4155 29.832C72.8608 29.2347 72.5195 28.552 72.3915 27.784C72.2635 27.016 72.3915 26.2267 72.7755 25.416C73.1595 24.6053 73.9275 23.9653 75.0795 23.496C76.4448 23.112 77.4475 22.792 78.0875 22.536C79.3248 22.024 80.3488 21.6613 81.1595 21.448C82.0128 21.2347 82.4822 21.1067 82.5675 21.064C82.6955 20.9787 82.7808 20.9147 82.8235 20.872C82.9515 20.7867 83.2715 20.744 83.7835 20.744C84.0395 19.5067 84.2955 18.248 84.5515 16.968C84.8075 15.688 85.1275 14.3867 85.5115 13.064C86.3648 9.992 87.5382 7.34666 89.0315 5.128ZM121.899 43.528C121.088 43.912 120.299 44.2107 119.531 44.424C118.763 44.6373 117.867 44.8507 116.843 45.064C114.155 45.6187 112.213 45.9387 111.019 46.024C111.147 46.4507 111.787 46.9627 112.939 47.56C113.707 47.688 114.539 47.5813 115.435 47.24C116.373 46.856 117.333 46.5147 118.315 46.216C119.339 45.8747 120.32 45.6827 121.259 45.64C122.24 45.5973 123.157 45.96 124.011 46.728C124.352 47.496 124.629 47.944 124.843 48.072C125.056 48.2 125.248 48.264 125.419 48.264C125.589 48.264 125.781 48.328 125.995 48.456C126.208 48.584 126.507 49.0747 126.891 49.928C127.317 50.7813 127.211 51.592 126.571 52.36C125.973 53.128 125.035 53.7893 123.755 54.344C122.475 54.8987 120.981 55.3467 119.275 55.688C117.568 56.0293 115.861 56.264 114.155 56.392C110.315 56.6907 107.392 56.392 105.387 55.496C102.485 54.5147 100.608 52.5733 99.7545 49.672C98.6452 45.832 99.2638 41.352 101.611 36.232C102.677 33.8427 104.363 31.2827 106.667 28.552C108.672 26.1627 110.912 24.4347 113.387 23.368C116.245 22.1307 119.232 21.5547 122.347 21.64C125.675 21.7253 127.979 23.176 129.259 25.992C129.899 27.4853 130.027 29.576 129.643 32.264C128.96 35.7627 128.064 38.2373 126.955 39.688C125.845 41.096 124.16 42.376 121.899 43.528ZM118.187 33.416C115.925 32.9467 114.155 34.2267 112.875 37.256C112.491 38.0667 112.192 38.92 111.979 39.816C113.429 39.9867 114.965 39.176 116.587 37.384C117.184 36.6587 117.632 35.9333 117.931 35.208C118.229 34.44 118.315 33.8427 118.187 33.416ZM137.094 26.504C137.691 24.968 138.523 23.816 139.59 23.048C140.699 22.2373 141.744 21.7467 142.726 21.576C143.75 21.3627 144.582 21.4693 145.222 21.896C145.904 22.3227 146.139 22.984 145.926 23.88C146.736 23.0693 147.91 22.3227 149.446 21.64C150.982 20.9573 152.198 20.488 153.094 20.232C153.99 19.976 154.758 19.848 155.398 19.848C156.806 19.9333 157.211 20.7013 156.614 22.152C157.339 22.28 157.872 22.7493 158.214 23.56C158.555 24.3707 158.598 25.2667 158.342 26.248C158.086 27.2293 157.51 28.1893 156.614 29.128C155.718 30.0667 154.502 30.7067 152.966 31.048C151.472 31.3893 150.214 32.1787 149.19 33.416C148.208 34.6107 147.334 36.104 146.566 37.896C145.286 40.9253 144.134 45.2133 143.11 50.76C142.768 52.7653 141.382 54.4507 138.95 55.816C136.646 57.1387 134.534 57.5227 132.614 56.968C130.438 56.3707 129.477 54.7707 129.733 52.168C129.819 50.3333 130.373 47.9013 131.398 44.872C132.422 41.8 133.211 39.496 133.766 37.96C134.32 36.3813 134.704 35.1867 134.918 34.376L137.094 26.504Z" fill="#DFE5DB"/>
</svg>
